<svg width="402" height="92" viewBox="0 0 402 92" fill="none" xmlns="http://www.w3.org/2000/svg">
<path d="M0 73.1599V15.4299H12.96V61.5599H35.86V73.1499H0V73.1599Z" fill="white"/>
<path d="M38.5498 52.5298V52.1998C38.5498 48.9998 39.1298 46.0298 40.2798 43.2998C41.4298 40.5698 43.0398 38.2398 45.1198 36.2998C47.1998 34.3698 49.6398 32.8898 52.4398 31.8698C55.2498 30.8498 58.2798 30.3398 61.5298 30.3398C64.6698 30.3398 67.5998 30.8798 70.3298 31.9598C73.0498 33.0398 75.3798 34.5598 77.3198 36.5098C79.2598 38.4698 80.7398 40.7498 81.7798 43.3398C82.8198 45.9398 83.3398 48.6698 83.3398 51.5398L83.1698 55.5198H51.0998C51.2098 57.3398 51.8598 58.9198 53.0398 60.2398C54.2198 61.5598 55.6898 62.4798 57.4598 62.9698C59.2298 63.4698 60.8698 63.7198 62.3798 63.7198C63.9498 63.7198 65.6098 63.4698 67.3498 62.9698C69.0898 62.4698 70.8898 61.3698 72.7398 59.6598L80.0598 66.5298C75.0598 71.6098 68.9798 74.1498 61.7898 74.1498C58.4198 74.1498 55.2898 73.6398 52.3998 72.6198C49.5098 71.5998 47.0398 70.1398 44.9898 68.2298C42.9398 66.3298 41.3598 64.0298 40.2298 61.3598C39.1198 58.6798 38.5498 55.7398 38.5498 52.5298ZM51.2698 47.4798H70.7198C70.7198 46.5998 70.4098 45.6198 69.7898 44.5398C69.1698 43.4598 68.0898 42.5298 66.5498 41.7198C65.0098 40.9198 63.3398 40.5198 61.5398 40.5198C58.8498 40.5198 56.4998 41.1998 54.5098 42.5498C52.5098 43.9098 51.4298 45.5498 51.2698 47.4798Z" fill="white"/>
<path d="M92.35 73.1599V42.5999H86.71V31.4199H92.35V15.4299H104.56V31.4199H113.9V42.5999H104.56V73.1599H92.35Z" fill="white"/>
<path d="M115.5 66.8599L122.74 59.2399C123.86 60.5699 125.48 61.6599 127.58 62.5099C129.68 63.3699 131.94 63.7899 134.36 63.7899C136.49 63.7899 138.09 63.4899 139.16 62.8799C140.23 62.2699 140.76 61.4499 140.76 60.3999C140.76 60.0699 140.63 59.6999 140.38 59.2799C140.13 58.8599 139.57 58.4799 138.7 58.1199C137.83 57.7599 136.23 57.2899 133.9 56.7099C131.57 56.1299 129.76 55.6199 128.47 55.1799C121.96 52.9699 118.7 49.1099 118.7 43.5899C118.7 40.9399 119.37 38.6399 120.72 36.6699C122.07 34.7099 123.99 33.1399 126.49 31.9499C128.99 30.7599 131.89 30.1699 135.2 30.1699C141.15 30.1699 146 31.9599 149.76 35.5499L143.78 43.6699C141.48 41.6299 138.5 40.6099 134.86 40.6099C133.51 40.6099 132.47 40.8699 131.75 41.3999C131.02 41.9299 130.66 42.5499 130.66 43.2599C130.66 44.0899 130.97 44.6999 131.59 45.0799C132.21 45.4699 133.69 45.9599 136.05 46.5699C138.41 47.1799 140.48 47.7799 142.28 48.3899C149.24 50.7099 152.72 54.6599 152.72 60.2299C152.72 62.2199 152.34 64.0799 151.58 65.8199C150.82 67.5599 149.69 69.0599 148.17 70.3299C146.65 71.5999 144.69 72.5799 142.28 73.2699C139.87 73.9599 137.12 74.3099 134.03 74.3099C131.9 74.3099 129.61 74.0599 127.17 73.5599C124.73 73.0599 122.5 72.2099 120.48 70.9899C118.44 69.7899 116.79 68.4099 115.5 66.8599Z" fill="white"/>
<path d="M155.15 61.31L164.58 54.93C165.98 57.25 167.97 59.1 170.56 60.48C173.14 61.86 176.06 62.55 179.32 62.55C180.78 62.55 182.22 62.34 183.65 61.93C185.08 61.52 186.18 60.84 186.93 59.9C187.69 58.96 188.07 57.94 188.07 56.84C188.07 55.79 187.75 54.83 187.1 53.94C186.45 53.06 185.43 52.27 184.03 51.58C182.63 50.89 180.7 50.13 178.26 49.3C175.82 48.47 174.18 47.89 173.34 47.56C169.35 46.12 166.37 44.52 164.37 42.76C162.38 40.99 161 39.12 160.25 37.13C159.49 35.14 159.11 33.05 159.11 30.84C159.11 29.02 159.46 27.14 160.16 25.21C160.86 23.28 162.03 21.52 163.65 19.95C165.28 18.38 167.37 17.08 169.92 16.06C172.47 15.04 175.38 14.53 178.63 14.53C183.12 14.53 187.01 15.43 190.29 17.22C193.57 19.01 196.2 21.26 198.16 23.97L189.49 30.43C187.13 27.45 183.62 25.96 178.97 25.96C176.84 25.96 175.13 26.4 173.83 27.29C172.54 28.17 171.89 29.31 171.89 30.69C171.89 32.07 172.34 33.19 173.24 34.04C174.14 34.9 176.14 35.85 179.26 36.9C182.37 37.95 184.63 38.75 186.04 39.3C191.31 41.29 195.13 43.62 197.49 46.3C199.85 48.98 201.03 52.36 201.03 56.45C201.03 58.99 200.58 61.34 199.68 63.49C198.78 65.64 197.43 67.52 195.64 69.12C193.84 70.72 191.56 71.95 188.78 72.8C186 73.66 182.82 74.08 179.23 74.08C175.47 74.08 171.92 73.53 168.58 72.42C165.24 71.32 162.46 69.76 160.25 67.74C158.02 65.72 156.33 63.58 155.15 61.31Z" fill="white"/>
<path d="M213.74 27.8599C211.83 27.8599 210.16 27.1699 208.73 25.7899C207.3 24.4099 206.58 22.7799 206.58 20.8999C206.58 18.9699 207.3 17.3099 208.73 15.9299C210.16 14.5499 211.83 13.8599 213.74 13.8599C215.7 13.8599 217.39 14.5499 218.79 15.9299C220.19 17.3099 220.89 18.9699 220.89 20.8999C220.89 21.7799 220.65 22.7799 220.18 23.8799C219.7 24.9799 218.86 25.9199 217.65 26.6999C216.44 27.4699 215.14 27.8599 213.74 27.8599ZM207.51 73.1599V31.4199H220.05V73.1599H207.51Z" fill="white"/>
<path d="M226.62 52.2899C226.62 49.3599 227.15 46.5799 228.22 43.9199C229.29 41.2699 230.77 38.9499 232.68 36.9599C234.59 34.9699 236.83 33.4299 239.41 32.3199C241.99 31.2199 244.74 30.6599 247.66 30.6599C249.18 30.6599 250.83 30.8499 252.63 31.2399C254.43 31.6299 256.04 32.3299 257.47 33.3499C258.9 34.3699 259.84 35.5399 260.29 36.8699V31.4199H272.83V66.1999C272.83 71.6699 272.23 75.9299 271.02 78.9899C269.81 82.0499 267.95 84.5799 265.42 86.5699C263.51 88.0599 261.2 89.2299 258.47 90.0899C255.75 90.9499 252.93 91.3699 250.01 91.3699C241.76 91.3699 234.83 89.4099 229.22 85.4899L235.2 76.5499C239.46 79.1999 243.81 80.5299 248.25 80.5299C249.88 80.5299 251.49 80.3399 253.09 79.9499C254.69 79.5599 255.97 79.0399 256.92 78.3799C259.39 76.7199 260.62 73.6899 260.62 69.2699V68.3599C259.72 69.8499 258.09 71.0699 255.74 71.9999C253.38 72.9399 250.69 73.4099 247.66 73.4099C244.74 73.4099 241.99 72.8699 239.41 71.7999C236.83 70.7199 234.58 69.2199 232.68 67.2899C230.77 65.3599 229.28 63.0899 228.22 60.4999C227.15 57.8899 226.62 55.1599 226.62 52.2899ZM239.16 52.2899C239.16 54.3899 239.76 56.2899 240.97 57.9999C242.18 59.7099 243.62 60.8999 245.31 61.5599C246.99 62.2199 248.54 62.5499 249.94 62.5499C251.34 62.5499 252.91 62.2199 254.65 61.5599C256.39 60.8999 257.89 59.7099 259.15 57.9999C260.41 56.2899 261.04 54.3799 261.04 52.2899C261.04 50.1899 260.41 48.2699 259.15 46.5299C257.89 44.7899 256.39 43.5799 254.65 42.8899C252.91 42.1999 251.34 41.8499 249.94 41.8499C246.91 41.8499 244.36 42.8599 242.28 44.8699C240.2 46.8899 239.16 49.3599 239.16 52.2899Z" fill="white"/>
<path d="M281 73.16V31.42H293.54V36.64C294.44 34.82 296.01 33.34 298.25 32.21C300.49 31.08 303.05 30.51 305.91 30.51C311.07 30.51 315.07 32.04 317.91 35.11C320.74 38.17 322.16 42.41 322.16 47.82V73.16H309.62V49.3C309.62 47.53 309.24 46.02 308.48 44.74C307.72 43.47 306.73 42.6 305.49 42.13C304.25 41.66 303.05 41.43 301.87 41.43C299.51 41.43 297.54 42.22 295.94 43.79C294.34 45.36 293.54 47.34 293.54 49.71V73.15H281V73.16Z" fill="white"/>
<path d="M380.32 0C380.32 0 372.78 11.64 362.54 31.11C354.98 45.48 351.35 46.81 351.35 46.81C351.35 46.81 368.91 46.81 373.79 46.81C375.12 45.92 378.53 40.88 379.64 39.11C380.75 37.34 401.64 0 401.64 0H380.32Z" fill="url(#paint0_linear_4_85)"/>
<path d="M355.72 26.74L334.76 26.89L339.57 37.11C342.55 41.88 343.27 43.06 347.56 45.92C349.06 46.92 349.62 46.82 349.62 46.82C349.62 46.82 352.77 45.78 359.68 33.09C357.41 30.04 355.72 26.74 355.72 26.74Z" fill="url(#paint1_linear_4_85)"/>
<defs>
<linearGradient id="paint0_linear_4_85" x1="376.5" y1="44.9607" x2="376.5" y2="10.38" gradientUnits="userSpaceOnUse">
<stop stop-color="#9271FD"/>
<stop offset="1" stop-color="#25DFFE"/>
</linearGradient>
<linearGradient id="paint1_linear_4_85" x1="347.219" y1="44.9607" x2="347.219" y2="10.38" gradientUnits="userSpaceOnUse">
<stop stop-color="#9271FD"/>
<stop offset="1" stop-color="#25DFFE"/>
</linearGradient>
</defs>
</svg>
