<svg width="402" height="92" viewBox="0 0 402 92" fill="none" xmlns="http://www.w3.org/2000/svg">
<path d="M0 73.5301V15.8H12.96V61.93H35.86V73.5201H0V73.5301Z" fill="black"/>
<path d="M38.5498 52.9V52.57C38.5498 49.37 39.1298 46.4 40.2798 43.67C41.4298 40.94 43.0398 38.61 45.1198 36.67C47.1998 34.74 49.6398 33.26 52.4398 32.24C55.2498 31.22 58.2798 30.71 61.5298 30.71C64.6698 30.71 67.5998 31.25 70.3298 32.33C73.0498 33.41 75.3798 34.93 77.3198 36.88C79.2598 38.84 80.7398 41.12 81.7798 43.71C82.8198 46.31 83.3398 49.04 83.3398 51.91L83.1698 55.89H51.0998C51.2098 57.71 51.8598 59.29 53.0398 60.61C54.2198 61.93 55.6898 62.85 57.4598 63.34C59.2298 63.84 60.8698 64.09 62.3798 64.09C63.9498 64.09 65.6098 63.84 67.3498 63.34C69.0898 62.84 70.8898 61.74 72.7398 60.03L80.0598 66.9C75.0598 71.98 68.9798 74.52 61.7898 74.52C58.4198 74.52 55.2898 74.01 52.3998 72.99C49.5098 71.97 47.0398 70.51 44.9898 68.6C42.9398 66.7 41.3598 64.4 40.2298 61.73C39.1198 59.05 38.5498 56.11 38.5498 52.9ZM51.2698 47.85H70.7198C70.7198 46.97 70.4098 45.99 69.7898 44.91C69.1698 43.83 68.0898 42.9 66.5498 42.09C65.0098 41.29 63.3398 40.89 61.5398 40.89C58.8498 40.89 56.4998 41.57 54.5098 42.92C52.5098 44.28 51.4298 45.92 51.2698 47.85Z" fill="black"/>
<path d="M92.35 73.5301V42.97H86.71V31.79H92.35V15.8H104.56V31.79H113.9V42.97H104.56V73.5301H92.35Z" fill="black"/>
<path d="M115.5 67.23L122.74 59.61C123.86 60.94 125.48 62.03 127.58 62.88C129.68 63.74 131.94 64.16 134.36 64.16C136.49 64.16 138.09 63.86 139.16 63.25C140.23 62.64 140.76 61.82 140.76 60.77C140.76 60.44 140.63 60.07 140.38 59.65C140.13 59.23 139.57 58.85 138.7 58.49C137.83 58.13 136.23 57.66 133.9 57.08C131.57 56.5 129.76 55.99 128.47 55.55C121.96 53.34 118.7 49.48 118.7 43.96C118.7 41.31 119.37 39.01 120.72 37.04C122.07 35.08 123.99 33.51 126.49 32.32C128.99 31.13 131.89 30.54 135.2 30.54C141.15 30.54 146 32.33 149.76 35.92L143.78 44.04C141.48 42 138.5 40.98 134.86 40.98C133.51 40.98 132.47 41.24 131.75 41.77C131.02 42.3 130.66 42.92 130.66 43.63C130.66 44.46 130.97 45.07 131.59 45.45C132.21 45.84 133.69 46.33 136.05 46.94C138.41 47.55 140.48 48.15 142.28 48.76C149.24 51.08 152.72 55.03 152.72 60.6C152.72 62.59 152.34 64.45 151.58 66.19C150.82 67.93 149.69 69.43 148.17 70.7C146.65 71.97 144.69 72.95 142.28 73.64C139.87 74.33 137.12 74.68 134.03 74.68C131.9 74.68 129.61 74.43 127.17 73.93C124.73 73.43 122.5 72.58 120.48 71.36C118.44 70.16 116.79 68.78 115.5 67.23Z" fill="black"/>
<path d="M155.15 61.6801L164.58 55.3001C165.98 57.6201 167.97 59.4701 170.56 60.8501C173.14 62.2301 176.06 62.9201 179.32 62.9201C180.78 62.9201 182.22 62.7101 183.65 62.3001C185.08 61.8901 186.18 61.2101 186.93 60.2701C187.69 59.3301 188.07 58.3101 188.07 57.2101C188.07 56.1601 187.75 55.2001 187.1 54.3101C186.45 53.4301 185.43 52.6401 184.03 51.9501C182.63 51.2601 180.7 50.5001 178.26 49.6701C175.82 48.8401 174.18 48.2601 173.34 47.9301C169.35 46.4901 166.37 44.8901 164.37 43.1301C162.38 41.3601 161 39.4901 160.25 37.5001C159.49 35.5101 159.11 33.4201 159.11 31.2101C159.11 29.3901 159.46 27.5101 160.16 25.5801C160.86 23.6501 162.03 21.8901 163.65 20.3201C165.28 18.7501 167.37 17.4501 169.92 16.4301C172.47 15.4101 175.38 14.9001 178.63 14.9001C183.12 14.9001 187.01 15.8001 190.29 17.5901C193.57 19.3801 196.2 21.6301 198.16 24.3401L189.49 30.8001C187.13 27.8201 183.62 26.3301 178.97 26.3301C176.84 26.3301 175.13 26.7701 173.83 27.6601C172.54 28.5401 171.89 29.6801 171.89 31.0601C171.89 32.4401 172.34 33.5601 173.24 34.4101C174.14 35.2701 176.14 36.2201 179.26 37.2701C182.37 38.3201 184.63 39.1201 186.04 39.6701C191.31 41.6601 195.13 43.9901 197.49 46.6701C199.85 49.3501 201.03 52.7301 201.03 56.8201C201.03 59.3601 200.58 61.7101 199.68 63.8601C198.78 66.0101 197.43 67.8901 195.64 69.4901C193.84 71.0901 191.56 72.3201 188.78 73.1701C186 74.0301 182.82 74.4501 179.23 74.4501C175.47 74.4501 171.92 73.9001 168.58 72.7901C165.24 71.6901 162.46 70.1301 160.25 68.1101C158.02 66.0901 156.33 63.9501 155.15 61.6801Z" fill="black"/>
<path d="M213.74 28.23C211.83 28.23 210.16 27.54 208.73 26.16C207.3 24.78 206.58 23.15 206.58 21.27C206.58 19.34 207.3 17.68 208.73 16.3C210.16 14.92 211.83 14.23 213.74 14.23C215.7 14.23 217.39 14.92 218.79 16.3C220.19 17.68 220.89 19.34 220.89 21.27C220.89 22.15 220.65 23.15 220.18 24.25C219.7 25.35 218.86 26.29 217.65 27.07C216.44 27.84 215.14 28.23 213.74 28.23ZM207.51 73.53V31.79H220.05V73.53H207.51Z" fill="black"/>
<path d="M226.62 52.66C226.62 49.73 227.15 46.95 228.22 44.29C229.29 41.64 230.77 39.32 232.68 37.33C234.59 35.34 236.83 33.8 239.41 32.69C241.99 31.59 244.74 31.03 247.66 31.03C249.18 31.03 250.83 31.22 252.63 31.61C254.43 32 256.04 32.7 257.47 33.72C258.9 34.74 259.84 35.91 260.29 37.24V31.79H272.83V66.57C272.83 72.04 272.23 76.3 271.02 79.36C269.81 82.42 267.95 84.95 265.42 86.94C263.51 88.43 261.2 89.6 258.47 90.46C255.75 91.32 252.93 91.74 250.01 91.74C241.76 91.74 234.83 89.78 229.22 85.86L235.2 76.92C239.46 79.57 243.81 80.9 248.25 80.9C249.88 80.9 251.49 80.71 253.09 80.32C254.69 79.93 255.97 79.41 256.92 78.75C259.39 77.09 260.62 74.06 260.62 69.64V68.73C259.72 70.22 258.09 71.44 255.74 72.37C253.38 73.31 250.69 73.78 247.66 73.78C244.74 73.78 241.99 73.24 239.41 72.17C236.83 71.09 234.58 69.59 232.68 67.66C230.77 65.73 229.28 63.46 228.22 60.87C227.15 58.26 226.62 55.53 226.62 52.66ZM239.16 52.66C239.16 54.76 239.76 56.66 240.97 58.37C242.18 60.08 243.62 61.27 245.31 61.93C246.99 62.59 248.54 62.92 249.94 62.92C251.34 62.92 252.91 62.59 254.65 61.93C256.39 61.27 257.89 60.08 259.15 58.37C260.41 56.66 261.04 54.75 261.04 52.66C261.04 50.56 260.41 48.64 259.15 46.9C257.89 45.16 256.39 43.95 254.65 43.26C252.91 42.57 251.34 42.22 249.94 42.22C246.91 42.22 244.36 43.23 242.28 45.24C240.2 47.26 239.16 49.73 239.16 52.66Z" fill="black"/>
<path d="M281 73.5301V31.7901H293.54V37.0101C294.44 35.1901 296.01 33.7101 298.25 32.5801C300.49 31.4501 303.05 30.8801 305.91 30.8801C311.07 30.8801 315.07 32.4101 317.91 35.4801C320.74 38.5401 322.16 42.7801 322.16 48.1901V73.5301H309.62V49.6701C309.62 47.9001 309.24 46.3901 308.48 45.1101C307.72 43.8401 306.73 42.9701 305.49 42.5001C304.25 42.0301 303.05 41.8001 301.87 41.8001C299.51 41.8001 297.54 42.5901 295.94 44.1601C294.34 45.7301 293.54 47.7101 293.54 50.0801V73.5201H281V73.5301Z" fill="black"/>
<path d="M380.32 0.370117C380.32 0.370117 372.78 12.0101 362.54 31.4801C354.98 45.8501 351.35 47.1801 351.35 47.1801C351.35 47.1801 368.91 47.1801 373.79 47.1801C375.12 46.2901 378.53 41.2501 379.64 39.4801C380.75 37.7101 401.64 0.370117 401.64 0.370117H380.32Z" fill="url(#paint0_linear_66_32)"/>
<path d="M355.72 27.1101L334.76 27.2601L339.57 37.4801C342.55 42.2501 343.27 43.4301 347.56 46.2901C349.06 47.2901 349.62 47.1901 349.62 47.1901C349.62 47.1901 352.77 46.1501 359.68 33.4601C357.41 30.4101 355.72 27.1101 355.72 27.1101Z" fill="url(#paint1_linear_66_32)"/>
<defs>
<linearGradient id="paint0_linear_66_32" x1="376.5" y1="45.3308" x2="376.5" y2="10.7501" gradientUnits="userSpaceOnUse">
<stop stop-color="#9271FD"/>
<stop offset="1" stop-color="#25DFFE"/>
</linearGradient>
<linearGradient id="paint1_linear_66_32" x1="347.219" y1="45.3308" x2="347.219" y2="10.7501" gradientUnits="userSpaceOnUse">
<stop stop-color="#9271FD"/>
<stop offset="1" stop-color="#25DFFE"/>
</linearGradient>
</defs>
</svg>
